# xmcd CD database file
#
# Track frame offsets:
#	150
#	19427
#	35587
#	54287
#	79312
#	100750
#
# Disc length: 1628 seconds
#
# Revision: 0
# Processed by: cddbd v1.5.1PL0 Copyright (c) Steve Scherf et al.
# Submitted via: CDex 1.51
#
DISCID=45065a06
DTITLE=橋本さとし - R&R ＄-TRIP Vol.1 〜夕陽のラブ・ガンマン〜
DYEAR=1997
DGENRE=Japanese Rock
TTITLE0=ロックンロール　アウトロー
TTITLE1=WILD RIDE(Album Version)
TTITLE2=MR.MONSTER
TTITLE3=I'll Never Back to...
TTITLE4=逃亡者
TTITLE5=HI PRIDE
EXTD=YEAR: 1997/2/21
EXTT0=
EXTT1=
EXTT2=
EXTT3=
EXTT4=
EXTT5=
PLAYORDER=
